<?xml version="1.0" encoding="UTF-8" standalone="no"?>
<svg
   version="1.1"
   width="186.20000000000007"
   height="136.10381056766587"
   id="svg34"
   sodipodi:docname="hat_with_kites.svg"
   inkscape:version="1.1.2 (0a00cf5339, 2022-02-04)"
   xmlns:inkscape="http://www.inkscape.org/namespaces/inkscape"
   xmlns:sodipodi="http://sodipodi.sourceforge.net/DTD/sodipodi-0.dtd"
   xmlns="http://www.w3.org/2000/svg"
   xmlns:svg="http://www.w3.org/2000/svg">
  <defs
     id="defs38" />
  <sodipodi:namedview
     id="namedview36"
     pagecolor="#ffffff"
     bordercolor="#666666"
     borderopacity="1.0"
     inkscape:pageshadow="2"
     inkscape:pageopacity="0.0"
     inkscape:pagecheckerboard="0"
     showgrid="false"
     inkscape:zoom="4.8859765"
     inkscape:cx="122.39109"
     inkscape:cy="68.051903"
     inkscape:window-width="2560"
     inkscape:window-height="1376"
     inkscape:window-x="0"
     inkscape:window-y="0"
     inkscape:window-maximized="1"
     inkscape:current-layer="svg34" />
  <style
     type="text/css"
     id="style2">
path { fill: none; stroke: rgb(160,160,160); stroke-width: 1.5; stroke-linejoin: round; stroke-linecap: round; }
.outline { stroke: rgba(0, 0, 0, 0.15); stroke-width: 1.5; fill: none; }
.arrow { stroke: rgba(0, 0, 0, 0.4); stroke-width: 1.5; fill: none; }
.tile { stroke: black; stroke-width: 1.5; fill: none; }
.angle { stroke: black; stroke-width: 1.5; fill: none; }
.blob { stroke: none; fill: black; }
</style>
  <path
     class="tile"
     d="m 48.1,133.00381 h -30 l -15,-25.98076 45,-25.980764 V 29.080762 l 30,0 L 93.1,3.1 l 45,25.980762 0,51.961524 30,0 15,25.980764 -45,25.98076 -45,-25.98076 -15,25.98076 z"
     id="path4" />
  <path
     style="fill:none;stroke:#ef0000;stroke-width:1px;stroke-linecap:butt;stroke-linejoin:miter;stroke-opacity:1"
     d="m 48.1,133.00381 v 0 c 0,-51.961524 0,-51.961524 0,-51.961524 90,-51.961524 90,-51.961524 90,-51.961524"
     id="path2486"
     sodipodi:nodetypes="cc" />
  <path
     style="fill:none;stroke:#ff0000;stroke-width:1px;stroke-linecap:butt;stroke-linejoin:miter;stroke-opacity:1"
     d="M 107.97323,80.897179 C 138.1,81.042286 138.1,81.042286 138.1,81.042286"
     id="path2627" />
  <path
     style="fill:none;stroke:#f80000;stroke-width:1px;stroke-linecap:butt;stroke-linejoin:miter;stroke-opacity:1"
     d="m 138.1,133.00381 c 0,-51.961524 0,-51.961524 0,-51.961524"
     id="path2926" />
  <path
     style="fill:none;stroke:#f70000;stroke-width:1px;stroke-linecap:butt;stroke-linejoin:miter;stroke-opacity:1"
     d="M 93.1,107.02305 C 107.97323,80.897179 107.97323,80.897179 107.97323,80.897179"
     id="path3024" />
  <path
     style="fill:none;stroke:#fa0000;stroke-width:1px;stroke-linecap:butt;stroke-linejoin:miter;stroke-opacity:1"
     d="m 78.1,29.080762 c 29.87323,51.816417 29.87323,51.816417 29.87323,51.816417"
     id="path3059" />
  <path
     style="fill:none;stroke:#f90000;stroke-width:1px;stroke-linecap:butt;stroke-linejoin:miter;stroke-opacity:1"
     d="m 48.1,81.042286 c 45,25.980764 45,25.980764 45,25.980764"
     id="path3933" />
</svg>
